<svg height="512pt" viewBox="0 0 512 512" width="512pt" xmlns="http://www.w3.org/2000/svg" fill="#e8e8e8"><path d="m231.761719 197.933594h-14.640625v-22.035156c0-29.003907-18.410156-54.882813-45.808594-64.394532l-20.667969-7.175781c11.570313-9.164063 19.011719-23.320313 19.011719-39.191406v-15.148438c0-27.5625-22.425781-49.988281-49.988281-49.988281s-49.988281 22.425781-49.988281 49.988281v15.148438c0 15.871093 7.445312 30.027343 19.011718 39.191406l-20.667968 7.175781c-27.398438 9.511719-45.808594 35.390625-45.808594 64.394532v22.035156h-14.640625c-4.183594 0-7.574219 3.390625-7.574219 7.574218v36.355469c0 4.183594 3.390625 7.574219 7.574219 7.574219h7.851562l.726563 19.636719c.15625 4.179687 3.636718 7.449219 7.851562 7.285156 4.179688-.15625 7.441406-3.667969 7.285156-7.847656l-.707031-19.074219h178.164063l-9.515625 247.414062h-159.121094l-7.421875-192.921874c-.160156-4.179688-3.667969-7.425782-7.859375-7.277344-4.179687.160156-7.4375 3.679687-7.277344 7.859375l7.703125 200.203125c.152344 4.066406 3.496094 7.285156 7.566406 7.285156h173.695313c4.070313 0 7.414063-3.21875 7.570313-7.285156l9.816406-255.28125h7.859375c4.183593 0 7.574219-3.390625 7.574219-7.574219v-36.351563c0-4.183593-3.390626-7.574218-7.574219-7.574218zm-146.933594-147.945313c0-19.210937 15.628906-34.839843 34.839844-34.839843 19.210937 0 34.839843 15.628906 34.839843 34.839843v15.148438c0 19.210937-15.628906 34.839843-34.839843 34.839843-19.210938 0-34.839844-15.628906-34.839844-34.839843zm50.730469 65.136719 7.359375 2.554688-23.25 40.34375-23.246094-40.34375 7.355469-2.554688zm-98.195313 60.773438c0-22.558594 14.320313-42.683594 35.628907-50.085938l8.859374-3.074219 31.253907 54.234375c1.351562 2.347656 3.855469 3.792969 6.5625 3.792969s5.210937-1.445313 6.5625-3.792969l31.253906-54.234375 8.859375 3.074219c21.308594 7.398438 35.628906 27.527344 35.628906 50.085938v22.035156h-164.609375zm186.824219 58.390624h-209.039062v-21.207031h209.039062zm0 0"/><path d="m164.101562 449.390625c4.183594 0 7.574219-3.394531 7.574219-7.574219v-153.5c0-4.183594-3.390625-7.574218-7.574219-7.574218-4.011718 0-7.285156 3.121093-7.546874 7.070312h-51.023438c-4.183594 0-7.574219 3.390625-7.574219 7.574219v12.621093h-22.722656c-4.183594 0-7.574219 3.390626-7.574219 7.574219v58.570313c0 4.183594 3.390625 7.574218 7.574219 7.574218h58.574219c4.179687 0 7.574218-3.390624 7.574218-7.574218v-12.621094h15.144532v80.285156c0 4.179688 3.390625 7.574219 7.574218 7.574219zm-37.867187-82.8125h-43.425781v-43.421875h15.148437v30.800781c0 4.183594 3.390625 7.574219 7.574219 7.574219h20.703125zm-13.128906-20.195313v-43.421874h43.421875v43.421874zm0 0"/><path d="m504.425781 197.933594h-14.644531v-22.035156c0-29.003907-18.40625-54.882813-45.804688-64.394532l-20.671874-7.175781c11.570312-9.164063 19.015624-23.320313 19.015624-39.191406v-15.148438c0-27.5625-22.425781-49.988281-49.988281-49.988281s-49.988281 22.425781-49.988281 49.988281v15.148438c0 15.871093 7.441406 30.027343 19.011719 39.191406l-20.667969 7.175781c-27.398438 9.511719-45.808594 35.390625-45.808594 64.394532v22.035156h-14.644531c-4.179687 0-7.574219 3.390625-7.574219 7.574218v36.355469c0 4.183594 3.394532 7.574219 7.574219 7.574219h7.863281l9.816406 255.28125c.15625 4.066406 3.5 7.28125 7.570313 7.28125h173.695313c4.070312 0 7.410156-3.214844 7.566406-7.28125l7.699218-200.207031c.164063-4.179688-3.09375-7.699219-7.273437-7.859375-4.148437-.128906-7.699219 3.097656-7.859375 7.277344l-7.421875 192.921874h-159.121094l-9.515625-247.414062h178.164063l-.707031 19.074219c-.15625 4.179687 3.105468 7.695312 7.285156 7.847656 4.183594.164063 7.695312-3.105469 7.851562-7.285156l.726563-19.636719h7.851562c4.183594 0 7.574219-3.390625 7.574219-7.574219v-36.355469c0-4.183593-3.390625-7.574218-7.574219-7.574218zm-146.933593-147.945313c0-19.210937 15.628906-34.839843 34.839843-34.839843 19.210938 0 34.839844 15.628906 34.839844 34.839843v15.148438c0 19.210937-15.628906 34.839843-34.839844 34.839843-19.210937 0-34.839843-15.628906-34.839843-34.839843zm50.730468 65.136719 7.355469 2.554688-23.246094 40.34375-23.25-40.34375 7.359375-2.554688zm-98.195312 60.773438c0-22.558594 14.320312-42.683594 35.628906-50.085938l8.859375-3.074219 31.253906 54.234375c1.351563 2.347656 3.851563 3.792969 6.5625 3.792969 2.707031 0 5.207031-1.445313 6.5625-3.792969l31.253907-54.234375 8.859374 3.074219c21.308594 7.398438 35.625 27.527344 35.625 50.085938v22.035156h-164.605468zm186.824218 58.390624h-209.039062v-21.207031h209.039062zm0 0"/><path d="m378.191406 381.726562h58.574219c4.183594 0 7.574219-3.390624 7.574219-7.574218v-58.570313c0-4.183593-3.390625-7.574219-7.574219-7.574219h-22.722656v-12.621093c0-4.183594-3.390625-7.574219-7.574219-7.574219h-51.023438c-.261718-3.949219-3.535156-7.070312-7.546874-7.070312-4.183594 0-7.574219 3.390624-7.574219 7.574218v153.5c0 4.179688 3.390625 7.574219 7.574219 7.574219 4.179687 0 7.574218-3.394531 7.574218-7.574219v-80.285156h15.144532v12.621094c0 4.183594 3.394531 7.574218 7.574218 7.574218zm51-58.570312v43.421875h-43.425781v-5.046875h20.703125c4.183594 0 7.574219-3.390625 7.574219-7.574219v-30.800781zm-73.71875-20.195312h43.421875v43.421874h-43.421875zm0 0"/></svg>